<svg width="150" height="150" viewBox="0 0 150 150" fill="none" xmlns="http://www.w3.org/2000/svg">
<g clip-path="url(#clip0_2_2)">
<circle cx="75" cy="75" r="70" fill="white" stroke="black" stroke-width="10"/>
<g clip-path="url(#clip1_2_2)">
<path d="M38.25 103.583C43.8367 100.358 50.174 98.6598 56.625 98.6598C63.076 98.6598 69.4133 100.358 75 103.583C80.5867 100.358 86.924 98.6598 93.375 98.6598C99.826 98.6598 106.163 100.358 111.75 103.583" stroke="black" stroke-width="10" stroke-linecap="round" stroke-linejoin="round"/>
<path d="M38.25 50.5C43.8367 47.2745 50.174 45.5764 56.625 45.5764C63.076 45.5764 69.4133 47.2745 75 50.5C80.5867 47.2745 86.924 45.5764 93.375 45.5764C99.826 45.5764 106.163 47.2745 111.75 50.5" stroke="black" stroke-width="10" stroke-linecap="round" stroke-linejoin="round"/>
<path d="M38.25 50.5V103.583" stroke="black" stroke-width="10" stroke-linecap="round" stroke-linejoin="round"/>
<path d="M75 50.5V103.583" stroke="black" stroke-width="10" stroke-linecap="round" stroke-linejoin="round"/>
<path d="M111.75 50.5V103.583" stroke="black" stroke-width="10" stroke-linecap="round" stroke-linejoin="round"/>
</g>
</g>
<defs>
<clipPath id="clip0_2_2">
<rect width="150" height="150" fill="white"/>
</clipPath>
<clipPath id="clip1_2_2">
<rect width="98" height="98" fill="white" transform="translate(26 26)"/>
</clipPath>
</defs>
</svg>
